<svg xmlns="http://www.w3.org/2000/svg" width="1100" height="1100" viewBox="0 0 1100 1100">
<rect width="1100" height="1100" fill="#FAF7F2"/>
<filter id="cloud" x="0" y="0" width="100%" height="100%">
<feTurbulence type="fractalNoise" baseFrequency="0.004 0.006" numOctaves="4" seed="8" stitchTiles="stitch"/>
<feColorMatrix type="matrix" values="0 0 0 0 0.80  0 0 0 0 0.79  0 0 0 0 0.77  0.6 0 0 0 0"/>
</filter>
<rect width="1100" height="1100" filter="url(#cloud)" opacity="0.32"/>
<filter id="soft1" x="-5%" y="-5%" width="110%" height="110%"><feGaussianBlur stdDeviation="1.1"/></filter>
<filter id="soft2" x="-5%" y="-5%" width="110%" height="110%"><feGaussianBlur stdDeviation="2.6"/></filter>
<g fill="none" stroke-linecap="round">
<g stroke="#C3C8D0" filter="url(#soft2)" opacity="0.5">
<path d="M-20 240 C 180 190, 320 300, 520 260 S 900 170, 1120 230" stroke-width="7"/>
<path d="M-20 760 C 220 820, 430 700, 660 770 S 980 860, 1120 800" stroke-width="6"/>
<path d="M240 -20 C 200 220, 320 430, 260 660 S 190 950, 250 1120" stroke-width="5"/>
</g>
<g stroke="#AEB4BF" filter="url(#soft1)" opacity="0.55">
<path d="M-20 250 C 190 205, 330 295, 520 262 S 905 185, 1120 238" stroke-width="1.8"/>
<path d="M380 268 C 470 330, 560 350, 690 342" stroke-width="1.3"/>
<path d="M-20 752 C 215 806, 425 706, 660 762 S 975 845, 1120 792" stroke-width="1.6"/>
<path d="M700 770 C 790 730, 880 736, 960 700" stroke-width="1.2"/>
<path d="M248 -20 C 214 215, 322 428, 264 655 S 205 945, 256 1120" stroke-width="1.5"/>
<path d="M268 420 C 330 520, 322 640, 356 760" stroke-width="1.1"/>
<path d="M-20 1010 C 260 960, 520 1040, 800 990 S 1030 940, 1120 970" stroke-width="1.4"/>
<path d="M560 -20 C 620 160, 560 330, 640 470" stroke-width="1.2"/>
</g>
</g>
</svg>
